# Blender v2.80 (sub 75) OBJ File: 'tube.blend'
# www.blender.org
mtllib tube.mtl
o Circle
v 0.000000 0.000000 -100.000000
v -15.643448 0.000000 -98.768837
v -30.901701 0.000000 -95.105652
v -45.399052 0.000000 -89.100655
v -58.778526 0.000000 -80.901703
v -70.710678 0.000000 -70.710678
v -80.901703 0.000000 -58.778526
v -89.100655 0.000000 -45.399052
v -95.105652 0.000000 -30.901697
v -98.768837 0.000000 -15.643437
v -100.000000 0.000000 0.000016
v -98.768829 0.000000 15.643469
v -95.105644 0.000000 30.901728
v -89.100632 0.000000 45.399082
v -80.901680 0.000000 58.778561
v -70.710648 0.000000 70.710716
v -58.778484 0.000000 80.901733
v -45.398994 0.000000 89.100685
v -30.901634 0.000000 95.105675
v -15.643373 0.000000 98.768845
v 0.000080 0.000000 100.000000
v 15.643533 0.000000 98.768822
v 30.901787 0.000000 95.105621
v 45.399139 0.000000 89.100609
v 58.778614 0.000000 80.901634
v 70.710762 0.000000 70.710602
v 80.901772 0.000000 58.778427
v 89.100708 0.000000 45.398937
v 95.105690 0.000000 30.901575
v 98.768852 0.000000 15.643311
v 100.000000 0.000000 -0.000144
v 98.768814 0.000000 -15.643595
v 95.105598 0.000000 -30.901850
v 89.100578 0.000000 -45.399197
v 80.901596 0.000000 -58.778660
v 70.710548 0.000000 -70.710800
v 58.778374 0.000000 -80.901810
v 45.398884 0.000000 -89.100739
v 30.901512 0.000000 -95.105713
v 15.643247 0.000000 -98.768867
v 0.000000 100.000000 -100.000000
v -15.643448 100.000000 -98.768837
v -30.901701 100.000000 -95.105652
v -45.399052 100.000000 -89.100655
v -58.778526 100.000000 -80.901703
v -70.710678 100.000000 -70.710678
v -80.901703 100.000000 -58.778526
v -89.100655 100.000000 -45.399052
v -95.105652 100.000000 -30.901697
v -98.768837 100.000000 -15.643437
v -100.000000 100.000000 0.000016
v -98.768829 100.000000 15.643469
v -95.105644 100.000000 30.901728
v -89.100632 100.000000 45.399082
v -80.901680 100.000000 58.778561
v -70.710648 100.000000 70.710716
v -58.778484 100.000000 80.901733
v -45.398994 100.000000 89.100685
v -30.901634 100.000000 95.105675
v -15.643373 100.000000 98.768845
v 0.000080 100.000000 100.000000
v 15.643533 100.000000 98.768822
v 30.901787 100.000000 95.105621
v 45.399139 100.000000 89.100609
v 58.778614 100.000000 80.901634
v 70.710762 100.000000 70.710602
v 80.901772 100.000000 58.778427
v 89.100708 100.000000 45.398937
v 95.105690 100.000000 30.901575
v 98.768852 100.000000 15.643311
v 100.000000 100.000000 -0.000144
v 98.768814 100.000000 -15.643595
v 95.105598 100.000000 -30.901850
v 89.100578 100.000000 -45.399197
v 80.901596 100.000000 -58.778660
v 70.710548 100.000000 -70.710800
v 58.778374 100.000000 -80.901810
v 45.398884 100.000000 -89.100739
v 30.901512 100.000000 -95.105713
v 15.643247 100.000000 -98.768867
v -0.000000 0.000000 -92.101898
v -14.407912 0.000000 -90.967972
v -28.461052 0.000000 -87.594116
v -41.813389 0.000000 -82.063393
v -54.136131 0.000000 -74.512009
v -65.125877 0.000000 -65.125877
v -74.512001 0.000000 -54.136139
v -82.063385 0.000000 -41.813393
v -87.594109 0.000000 -28.461052
v -90.967972 0.000000 -14.407906
v -92.101898 0.000000 0.000012
v -90.967964 0.000000 14.407928
v -87.594101 0.000000 28.461075
v -82.063377 0.000000 41.813412
v -74.511978 0.000000 54.136162
v -65.125847 0.000000 65.125908
v -54.136097 0.000000 74.512024
v -41.813335 0.000000 82.063416
v -28.460991 0.000000 87.594124
v -14.407844 0.000000 90.967979
v 0.000074 0.000000 92.101891
v 14.407990 0.000000 90.967957
v 28.461132 0.000000 87.594078
v 41.813465 0.000000 82.063339
v 54.136215 0.000000 74.511932
v 65.125946 0.000000 65.125801
v 74.512062 0.000000 54.136044
v 82.063438 0.000000 41.813282
v 87.594147 0.000000 28.460936
v 90.967987 0.000000 14.407783
v 92.101891 0.000000 -0.000136
v 90.967949 0.000000 -14.408051
v 87.594063 0.000000 -28.461191
v 82.063316 0.000000 -41.813522
v 74.511902 0.000000 -54.136265
v 65.125755 0.000000 -65.125992
v 54.135998 0.000000 -74.512100
v 41.813232 0.000000 -82.063469
v 28.460878 0.000000 -87.594170
v 14.407725 0.000000 -90.968002
v -0.000000 100.000000 -92.101898
v -14.407912 100.000000 -90.967972
v -28.461052 100.000000 -87.594116
v -41.813389 100.000000 -82.063393
v -54.136131 100.000000 -74.512009
v -65.125877 100.000000 -65.125877
v -74.512001 100.000000 -54.136139
v -82.063385 100.000000 -41.813393
v -87.594109 100.000000 -28.461052
v -90.967972 100.000000 -14.407906
v -92.101898 100.000000 0.000012
v -90.967964 100.000000 14.407928
v -87.594101 100.000000 28.461075
v -82.063377 100.000000 41.813412
v -74.511978 100.000000 54.136162
v -65.125847 100.000000 65.125908
v -54.136097 100.000000 74.512024
v -41.813335 100.000000 82.063416
v -28.460991 100.000000 87.594124
v -14.407844 100.000000 90.967979
v 0.000074 100.000000 92.101891
v 14.407990 100.000000 90.967957
v 28.461132 100.000000 87.594078
v 41.813465 100.000000 82.063339
v 54.136215 100.000000 74.511932
v 65.125946 100.000000 65.125801
v 74.512062 100.000000 54.136044
v 82.063438 100.000000 41.813282
v 87.594147 100.000000 28.460936
v 90.967987 100.000000 14.407783
v 92.101891 100.000000 -0.000136
v 90.967949 100.000000 -14.408051
v 87.594063 100.000000 -28.461191
v 82.063316 100.000000 -41.813522
v 74.511902 100.000000 -54.136265
v 65.125755 100.000000 -65.125992
v 54.135998 100.000000 -74.512100
v 41.813232 100.000000 -82.063469
v 28.460878 100.000000 -87.594170
v 14.407725 100.000000 -90.968002
vt 0.000000 0.000000
vt 0.000000 0.000000
vt 0.000000 0.000000
vt 0.000000 0.000000
vt 0.000000 0.000000
vt 0.000000 0.000000
vt 0.000000 0.000000
vt 0.000000 0.000000
vt 0.000000 0.000000
vt 0.000000 0.000000
vt 0.000000 0.000000
vt 0.000000 0.000000
vt 0.000000 0.000000
vt 0.000000 0.000000
vt 0.000000 0.000000
vt 0.000000 0.000000
vt 0.000000 0.000000
vt 0.000000 0.000000
vt 0.000000 0.000000
vt 0.000000 0.000000
vt 0.000000 0.000000
vt 0.000000 0.000000
vt 0.000000 0.000000
vt 0.000000 0.000000
vt 0.000000 0.000000
vt 0.000000 0.000000
vt 0.000000 0.000000
vt 0.000000 0.000000
vt 0.000000 0.000000
vt 0.000000 0.000000
vt 0.000000 0.000000
vt 0.000000 0.000000
vt 0.000000 0.000000
vt 0.000000 0.000000
vt 0.000000 0.000000
vt 0.000000 0.000000
vt 0.000000 0.000000
vt 0.000000 0.000000
vt 0.000000 0.000000
vt 0.000000 0.000000
vt 0.000000 0.000000
vt 0.000000 0.000000
vt 0.000000 0.000000
vt 0.000000 0.000000
vt 0.000000 0.000000
vt 0.000000 0.000000
vt 0.000000 0.000000
vt 0.000000 0.000000
vt 0.000000 0.000000
vt 0.000000 0.000000
vt 0.000000 0.000000
vt 0.000000 0.000000
vt 0.000000 0.000000
vt 0.000000 0.000000
vt 0.000000 0.000000
vt 0.000000 0.000000
vt 0.000000 0.000000
vt 0.000000 0.000000
vt 0.000000 0.000000
vt 0.000000 0.000000
vt 0.000000 0.000000
vt 0.000000 0.000000
vt 0.000000 0.000000
vt 0.000000 0.000000
vt 0.000000 0.000000
vt 0.000000 0.000000
vt 0.000000 0.000000
vt 0.000000 0.000000
vt 0.000000 0.000000
vt 0.000000 0.000000
vt 0.000000 0.000000
vt 0.000000 0.000000
vt 0.000000 0.000000
vt 0.000000 0.000000
vt 0.000000 0.000000
vt 0.000000 0.000000
vt 0.000000 0.000000
vt 0.000000 0.000000
vt 0.000000 0.000000
vt 0.000000 0.000000
vt 0.000000 0.000000
vt 0.000000 0.000000
vt 0.000000 0.000000
vt 0.000000 0.000000
vt 0.000000 0.000000
vt 0.000000 0.000000
vt 0.000000 0.000000
vt 0.000000 0.000000
vt 0.000000 0.000000
vt 0.000000 0.000000
vt 0.000000 0.000000
vt 0.000000 0.000000
vt 0.000000 0.000000
vt 0.000000 0.000000
vt 0.000000 0.000000
vt 0.000000 0.000000
vt 0.000000 0.000000
vt 0.000000 0.000000
vt 0.000000 0.000000
vt 0.000000 0.000000
vt 0.000000 0.000000
vt 0.000000 0.000000
vt 0.000000 0.000000
vt 0.000000 0.000000
vt 0.000000 0.000000
vt 0.000000 0.000000
vt 0.000000 0.000000
vt 0.000000 0.000000
vt 0.000000 0.000000
vt 0.000000 0.000000
vt 0.000000 0.000000
vt 0.000000 0.000000
vt 0.000000 0.000000
vt 0.000000 0.000000
vt 0.000000 0.000000
vt 0.000000 0.000000
vt 0.000000 0.000000
vt 0.000000 0.000000
vt 0.000000 0.000000
vt 0.000000 0.000000
vt 0.000000 0.000000
vt 0.000000 0.000000
vt 0.000000 0.000000
vt 0.000000 0.000000
vt 0.000000 0.000000
vt 0.000000 0.000000
vt 0.000000 0.000000
vt 0.000000 0.000000
vt 0.000000 0.000000
vt 0.000000 0.000000
vt 0.000000 0.000000
vt 0.000000 0.000000
vt 0.000000 0.000000
vt 0.000000 0.000000
vt 0.000000 0.000000
vt 0.000000 0.000000
vt 0.000000 0.000000
vt 0.000000 0.000000
vt 0.000000 0.000000
vt 0.000000 0.000000
vt 0.000000 0.000000
vt 0.000000 0.000000
vt 0.000000 0.000000
vt 0.000000 0.000000
vt 0.000000 0.000000
vt 0.000000 0.000000
vt 0.000000 0.000000
vt 0.000000 0.000000
vt 0.000000 0.000000
vt 0.000000 0.000000
vt 0.000000 0.000000
vt 0.000000 0.000000
vt 0.000000 0.000000
vt 0.000000 0.000000
vt 0.000000 0.000000
vt 0.000000 0.000000
vt 0.000000 0.000000
vt 0.000000 0.000000
vt 0.000000 0.000000
vt 0.000000 0.000000
vn 0.2334 0.0000 0.9724
vn -0.9724 0.0000 -0.2334
vn 0.6494 0.0000 -0.7604
vn 0.3827 0.0000 0.9239
vn -0.9969 0.0000 -0.0785
vn 0.5225 0.0000 -0.8526
vn 0.5225 0.0000 0.8526
vn -0.9969 0.0000 0.0785
vn 0.3827 0.0000 -0.9239
vn 0.6494 0.0000 0.7604
vn -0.9724 0.0000 0.2334
vn 0.2334 0.0000 -0.9724
vn 0.7604 0.0000 0.6494
vn -0.9239 0.0000 0.3827
vn 0.0785 0.0000 -0.9969
vn 0.8526 0.0000 0.5225
vn -0.8526 0.0000 0.5225
vn -0.0785 0.0000 -0.9969
vn 0.9239 0.0000 0.3827
vn -0.7604 0.0000 0.6494
vn -0.2334 0.0000 -0.9724
vn 0.9724 0.0000 0.2334
vn -0.6494 0.0000 0.7604
vn -0.3827 0.0000 -0.9239
vn 0.9969 0.0000 0.0785
vn -0.5225 0.0000 0.8526
vn -0.5225 0.0000 -0.8526
vn 0.9969 0.0000 -0.0785
vn -0.3827 0.0000 0.9239
vn -0.6494 0.0000 -0.7604
vn 0.9724 0.0000 -0.2334
vn -0.2334 0.0000 0.9724
vn -0.7604 0.0000 -0.6494
vn 0.9239 0.0000 -0.3827
vn -0.0785 0.0000 0.9969
vn -0.8526 0.0000 -0.5225
vn 0.8526 0.0000 -0.5225
vn 0.0785 0.0000 0.9969
vn -0.9239 0.0000 -0.3827
vn 0.7604 0.0000 -0.6494
vn 0.0000 1.0000 0.0000
vn 0.0000 -1.0000 0.0000
usemtl None
s off
f 23/1/1 63/2/1 62/3/1 22/4/1
f 10/5/2 50/6/2 49/7/2 9/8/2
f 37/9/3 77/10/3 76/11/3 36/12/3
f 24/13/4 64/14/4 63/2/4 23/1/4
f 11/15/5 51/16/5 50/6/5 10/5/5
f 38/17/6 78/18/6 77/10/6 37/9/6
f 25/19/7 65/20/7 64/14/7 24/13/7
f 12/21/8 52/22/8 51/16/8 11/15/8
f 39/23/9 79/24/9 78/18/9 38/17/9
f 26/25/10 66/26/10 65/20/10 25/19/10
f 13/27/11 53/28/11 52/22/11 12/21/11
f 40/29/12 80/30/12 79/24/12 39/23/12
f 27/31/13 67/32/13 66/26/13 26/25/13
f 14/33/14 54/34/14 53/28/14 13/27/14
f 1/35/15 41/36/15 80/30/15 40/29/15
f 28/37/16 68/38/16 67/32/16 27/31/16
f 15/39/17 55/40/17 54/34/17 14/33/17
f 2/41/18 42/42/18 41/36/18 1/35/18
f 29/43/19 69/44/19 68/38/19 28/37/19
f 16/45/20 56/46/20 55/40/20 15/39/20
f 3/47/21 43/48/21 42/42/21 2/41/21
f 30/49/22 70/50/22 69/44/22 29/43/22
f 17/51/23 57/52/23 56/46/23 16/45/23
f 4/53/24 44/54/24 43/48/24 3/47/24
f 31/55/25 71/56/25 70/50/25 30/49/25
f 18/57/26 58/58/26 57/52/26 17/51/26
f 5/59/27 45/60/27 44/54/27 4/53/27
f 32/61/28 72/62/28 71/56/28 31/55/28
f 19/63/29 59/64/29 58/58/29 18/57/29
f 6/65/30 46/66/30 45/60/30 5/59/30
f 33/67/31 73/68/31 72/62/31 32/61/31
f 20/69/32 60/70/32 59/64/32 19/63/32
f 7/71/33 47/72/33 46/66/33 6/65/33
f 34/73/34 74/74/34 73/68/34 33/67/34
f 21/75/35 61/76/35 60/70/35 20/69/35
f 8/77/36 48/78/36 47/72/36 7/71/36
f 35/79/37 75/80/37 74/74/37 34/73/37
f 22/4/38 62/3/38 61/76/38 21/75/38
f 9/8/39 49/7/39 48/78/39 8/77/39
f 36/12/40 76/11/40 75/80/40 35/79/40
f 103/81/21 102/82/21 142/83/21 143/84/21
f 90/85/22 89/86/22 129/87/22 130/88/22
f 117/89/23 116/90/23 156/91/23 157/92/23
f 104/93/24 103/81/24 143/84/24 144/94/24
f 91/95/25 90/85/25 130/88/25 131/96/25
f 118/97/26 117/89/26 157/92/26 158/98/26
f 105/99/27 104/93/27 144/94/27 145/100/27
f 92/101/28 91/95/28 131/96/28 132/102/28
f 119/103/29 118/97/29 158/98/29 159/104/29
f 106/105/30 105/99/30 145/100/30 146/106/30
f 93/107/31 92/101/31 132/102/31 133/108/31
f 120/109/32 119/103/32 159/104/32 160/110/32
f 107/111/33 106/105/33 146/106/33 147/112/33
f 94/113/34 93/107/34 133/108/34 134/114/34
f 81/115/35 120/109/35 160/110/35 121/116/35
f 108/117/36 107/111/36 147/112/36 148/118/36
f 95/119/37 94/113/37 134/114/37 135/120/37
f 82/121/38 81/115/38 121/116/38 122/122/38
f 109/123/39 108/117/39 148/118/39 149/124/39
f 96/125/40 95/119/40 135/120/40 136/126/40
f 83/127/1 82/121/1 122/122/1 123/128/1
f 110/129/2 109/123/2 149/124/2 150/130/2
f 97/131/3 96/125/3 136/126/3 137/132/3
f 84/133/4 83/127/4 123/128/4 124/134/4
f 111/135/5 110/129/5 150/130/5 151/136/5
f 98/137/6 97/131/6 137/132/6 138/138/6
f 85/139/7 84/133/7 124/134/7 125/140/7
f 112/141/8 111/135/8 151/136/8 152/142/8
f 99/143/9 98/137/9 138/138/9 139/144/9
f 86/145/10 85/139/10 125/140/10 126/146/10
f 113/147/11 112/141/11 152/142/11 153/148/11
f 100/149/12 99/143/12 139/144/12 140/150/12
f 87/151/13 86/145/13 126/146/13 127/152/13
f 114/153/14 113/147/14 153/148/14 154/154/14
f 101/155/15 100/149/15 140/150/15 141/156/15
f 88/157/16 87/151/16 127/152/16 128/158/16
f 115/159/17 114/153/17 154/154/17 155/160/17
f 102/82/18 101/155/18 141/156/18 142/83/18
f 89/86/19 88/157/19 128/158/19 129/87/19
f 116/90/20 115/159/20 155/160/20 156/91/20
f 56/46/41 57/52/41 137/132/41 136/126/41
f 31/55/42 30/49/42 110/129/42 111/135/42
f 5/59/42 4/53/42 84/133/42 85/139/42
f 57/52/41 58/58/41 138/138/41 137/132/41
f 32/61/42 31/55/42 111/135/42 112/141/42
f 6/65/42 5/59/42 85/139/42 86/145/42
f 58/58/41 59/64/41 139/144/41 138/138/41
f 33/67/42 32/61/42 112/141/42 113/147/42
f 7/71/42 6/65/42 86/145/42 87/151/42
f 59/64/41 60/70/41 140/150/41 139/144/41
f 34/73/42 33/67/42 113/147/42 114/153/42
f 8/77/42 7/71/42 87/151/42 88/157/42
f 60/70/41 61/76/41 141/156/41 140/150/41
f 35/79/42 34/73/42 114/153/42 115/159/42
f 9/8/42 8/77/42 88/157/42 89/86/42
f 61/76/41 62/3/41 142/83/41 141/156/41
f 36/12/42 35/79/42 115/159/42 116/90/42
f 10/5/42 9/8/42 89/86/42 90/85/42
f 62/3/41 63/2/41 143/84/41 142/83/41
f 37/9/42 36/12/42 116/90/42 117/89/42
f 11/15/42 10/5/42 90/85/42 91/95/42
f 63/2/41 64/14/41 144/94/41 143/84/41
f 38/17/42 37/9/42 117/89/42 118/97/42
f 12/21/42 11/15/42 91/95/42 92/101/42
f 64/14/41 65/20/41 145/100/41 144/94/41
f 39/23/42 38/17/42 118/97/42 119/103/42
f 13/27/42 12/21/42 92/101/42 93/107/42
f 65/20/41 66/26/41 146/106/41 145/100/41
f 40/29/42 39/23/42 119/103/42 120/109/42
f 14/33/42 13/27/42 93/107/42 94/113/42
f 66/26/41 67/32/41 147/112/41 146/106/41
f 1/35/42 40/29/42 120/109/42 81/115/42
f 15/39/42 14/33/42 94/113/42 95/119/42
f 67/32/41 68/38/41 148/118/41 147/112/41
f 41/36/41 42/42/41 122/122/41 121/116/41
f 16/45/42 15/39/42 95/119/42 96/125/42
f 68/38/41 69/44/41 149/124/41 148/118/41
f 42/42/41 43/48/41 123/128/41 122/122/41
f 17/51/42 16/45/42 96/125/42 97/131/42
f 69/44/41 70/50/41 150/130/41 149/124/41
f 43/48/41 44/54/41 124/134/41 123/128/41
f 18/57/42 17/51/42 97/131/42 98/137/42
f 70/50/41 71/56/41 151/136/41 150/130/41
f 44/54/41 45/60/41 125/140/41 124/134/41
f 19/63/42 18/57/42 98/137/42 99/143/42
f 71/56/41 72/62/41 152/142/41 151/136/41
f 45/60/41 46/66/41 126/146/41 125/140/41
f 20/69/42 19/63/42 99/143/42 100/149/42
f 72/62/41 73/68/41 153/148/41 152/142/41
f 46/66/41 47/72/41 127/152/41 126/146/41
f 21/75/42 20/69/42 100/149/42 101/155/42
f 73/68/41 74/74/41 154/154/41 153/148/41
f 47/72/41 48/78/41 128/158/41 127/152/41
f 22/4/42 21/75/42 101/155/42 102/82/42
f 74/74/41 75/80/41 155/160/41 154/154/41
f 48/78/41 49/7/41 129/87/41 128/158/41
f 23/1/42 22/4/42 102/82/42 103/81/42
f 75/80/41 76/11/41 156/91/41 155/160/41
f 49/7/41 50/6/41 130/88/41 129/87/41
f 24/13/42 23/1/42 103/81/42 104/93/42
f 76/11/41 77/10/41 157/92/41 156/91/41
f 50/6/41 51/16/41 131/96/41 130/88/41
f 25/19/42 24/13/42 104/93/42 105/99/42
f 77/10/41 78/18/41 158/98/41 157/92/41
f 51/16/41 52/22/41 132/102/41 131/96/41
f 26/25/42 25/19/42 105/99/42 106/105/42
f 78/18/41 79/24/41 159/104/41 158/98/41
f 52/22/41 53/28/41 133/108/41 132/102/41
f 27/31/42 26/25/42 106/105/42 107/111/42
f 79/24/41 80/30/41 160/110/41 159/104/41
f 53/28/41 54/34/41 134/114/41 133/108/41
f 28/37/42 27/31/42 107/111/42 108/117/42
f 2/41/42 1/35/42 81/115/42 82/121/42
f 80/30/41 41/36/41 121/116/41 160/110/41
f 54/34/41 55/40/41 135/120/41 134/114/41
f 29/43/42 28/37/42 108/117/42 109/123/42
f 3/47/42 2/41/42 82/121/42 83/127/42
f 55/40/41 56/46/41 136/126/41 135/120/41
f 30/49/42 29/43/42 109/123/42 110/129/42
f 4/53/42 3/47/42 83/127/42 84/133/42
